<?xml version="1.0" encoding="UTF-8"?>
<!DOCTYPE svg PUBLIC "-//W3C//DTD SVG 1.1//EN" "http://www.w3.org/Graphics/SVG/1.1/DTD/svg11.dtd">
<!-- Creator: CorelDRAW 2026 -->
<svg xmlns="http://www.w3.org/2000/svg" xml:space="preserve" width="53.206mm" height="52.6856mm" version="1.1" style="shape-rendering:geometricPrecision; text-rendering:geometricPrecision; image-rendering:optimizeQuality; fill-rule:evenodd; clip-rule:evenodd"
viewBox="0 0 53206 52685.6"
 xmlns:xlink="http://www.w3.org/1999/xlink"
 xmlns:xodm="http://www.corel.com/coreldraw/odm/2003">
 <defs>
  <style type="text/css">
   <![CDATA[
    .fil0 {fill:#D554FF;fill-rule:nonzero}
   ]]>
  </style>
 </defs>
 <g id="Слой_x0020_1">
  <metadata id="CorelCorpID_0Corel-Layer"/>
  <path class="fil0" d="M43948.8 36257.8c7.8,5524.4 -5354.6,9581.7 -6053.6,10832 -809.6,1092.7 -764.7,3558.7 -783.2,5082.7 1.7,220.6 -170,411.8 -395.3,433.2 -454.4,37.5 -940,57.1 -1456.8,58.9 -3776.5,12.3 -10082.4,21.2 -18917.7,26.4 -467.4,0 -796.4,-186.9 -986.9,-560.9 -36.7,-71.2 -56.7,-154.7 -55.8,-238 263.8,-10762 -7738,-8395.8 -6741.3,-16078.8 1.2,-8.1 1.7,-16.2 1.7,-24.3 0,-100.8 -81.8,-182.6 -182.6,-182.6 -4.1,0 -8.3,1.1 -12.2,0.4 -11673.5,-2201 -11765,-23817.6 3077.2,-27526.9 840.8,-210.1 1987.8,-219 2559.4,-562.8 769.5,-463 901.2,-1331.2 1670.6,-2199.9 4215.7,-4987.8 10651.6,-6688.4 16756.7,-4134.5 5542.8,2318.8 6267.1,6609 6576.4,6821.8 814.2,560.1 4604.9,-341.4 8835.5,3363.9 9488,8640.7 4983,26302.9 -3778.3,24690.9 -7,-1.2 -13.9,-1.8 -20.9,-1.8 -67.2,0 -121.7,54.5 -121.7,121.7 0,28.7 10.2,56.6 28.7,78.5l0.1 0.1zm-34573.1 -2111.4c746.2,-74.1 2002.9,-232.8 1656.3,904.9 -15.4,53.5 -45.7,101.3 -87.1,137.5l-698.7 629.8c-110.9,97.5 -185.6,237 -205.6,388.6 -207.1,1593.1 1081.4,3609.2 2126.5,4686.1 1153.6,1188.8 1927,1998.5 2320.4,2428.8 1998.5,2185.5 2809.9,4757.3 2434.2,7715.3 -0.5,4.3 -0.8,8.7 -0.8,13.1 0,57 46.2,103.2 103.2,103.2 0.3,0 0.6,0 0.9,0l18433.4 0.1c90.5,-0.1 163.9,-72.4 163.9,-161.5 8,-2143 39.8,-4175 1667,-5759.9 1393.5,-1358.2 2245.4,-2225.1 2555.9,-2600.8 1384.6,-1670.4 2357.4,-3602.8 2918.3,-5797 2.2,-9.4 3,-12.5 3.7,-15.5 65.7,-284.7 -113,-569.2 -399.2,-635.2 -2.6,-0.6 -5.2,-1.2 -7.8,-1.8 -1231.8,-278.9 -951.4,-1596.5 305.4,-1530.3 1836.2,97.8 3063.9,105.8 4540.3,-957.8 6209.7,-4462.8 4389.7,-10413.6 3264.9,-15748 -7.6,-33.8 -37.7,-57.8 -72.3,-57.8 -36.7,0 -67.8,26.8 -73.3,63.1 -293.7,2029.6 -2213.4,4575.5 -2213.4,2992.4 0,-64.5 22.1,-127 62.4,-177.3 1106,-1365.2 1385.6,-2932.4 838.8,-4701.6 -1026.6,-3333.6 -6137.4,-6505.4 -9683.8,-6217.7 -154.7,27.1 -241.6,152.9 -193.3,299l619.3 1748.8c2.5,7.1 5.3,16.5 7.6,25.9 40.3,161.5 -56.9,325 -217.1,364.9 -9.7,2.4 -19.5,4.4 -29.3,5.8 -1969.5,-811.7 -2057.5,-3623.5 -3164.8,-5505.1 -4709.2,-8002.3 -18124.1,-6668.8 -21186.1,3370.1 -128.7,422 -1977.4,3539.9 -1847.6,1543.2 107.9,-1658.5 1566.8,-2566.8 -3036.3,-1592.9 -8393.8,1776 -5025.9,8508.4 -5118,9377 -237.7,2241.7 -1751.4,-3301.7 -1892.3,-3530 -1604.8,1022.2 -2604.9,6464.3 -1505.6,11119.1 611.5,2589.6 2048.1,4935.9 3972.9,6141.7 1014.3,635.3 2180.7,1071.2 3637.1,931.8z"/>
  <path class="fil0" d="M26113.3 12908.3l15.9 0c376.8,0 682.5,305.7 682.5,682.6l0.1 35078.5c-0.1,376.8 -305.8,682.5 -682.7,682.5l-15.8 0.1c-377,-0.1 -682.7,-305.8 -682.7,-682.7l0.1 -35078.4c-0.1,-376.9 305.6,-682.6 682.5,-682.6l0.1 0z"/>
  <path class="fil0" d="M34376.2 35837.1c-26.4,105.8 -53.8,209.9 -82,312.2 -1031.9,3852.3 -1654.5,8097.1 -1868,12734.4 -0.1,-1.6 -0.1,1 -0.3,3.5 -15.8,302 -274.7,534.1 -578.2,518.2 -1.6,-0.1 -3.5,-0.2 -5.1,-0.3l-11.7 -0.2c-311.9,-24.5 -553.9,-282.6 -558.3,-595.4 -37,-2599.9 261.1,-5599.4 894.4,-8998.4 396.8,-2118.4 691.4,-3556 883.7,-4312.7 192.2,-754.9 622.6,-2157.2 1291.1,-4206.9 1072.5,-3287.9 2248.1,-6064.2 3526.9,-8329 107.4,-189.8 308.9,-307.2 527,-307.2 85.5,0 170.1,18.1 248.1,53.1l8.1 2.7c-1,-0.5 0.7,0.3 2.4,1.1 275.4,128.4 395.1,454.9 267.2,729 -1.2,2.7 -2.6,5.4 -3.8,8.1 -2036.3,4173.4 -3524.6,8197.7 -4464.7,12072.9 -24.7,104.1 -50.3,209.1 -76.8,314.9z"/>
  <path class="fil0" d="M13786.3 23036.5l58.3 -7.9c42.9,-6.7 86.5,-10.2 130,-10.2 315.6,0 603.9,179.4 743.1,462.6 1555.7,3119.5 2669.6,5183.2 3460.7,7948.1 435.7,1525.8 892.6,3213.8 1370.6,5064.2 993,3850.5 1599.8,7847.5 1820.3,11990.9 16.5,339.3 -229.2,631.7 -564.2,675l-20.5 2.3c1.3,-0.3 -2.7,0.3 -6.5,0.7 -313.2,38.5 -598.6,-185.5 -637.2,-500.1 -0.5,-3.9 -0.9,-7.9 -1.3,-11.7 -103.8,-1163.7 -164.6,-3134.9 -381.6,-4521.3 -670.3,-4247.4 -1657.2,-8512.5 -2960.7,-12795.2 -351,-1153.6 -866.1,-2420.1 -1545.2,-3799.4 -538,-1093.6 -1144.7,-2371.6 -1820.3,-3833.9 -28.8,-62.1 -43.9,-130 -43.9,-198.7 0,-232.1 169.2,-429.7 398.5,-465.4l-0.1 0z"/>
 </g>
</svg>
