<?xml version="1.0" encoding="UTF-8"?>
<!DOCTYPE svg PUBLIC "-//W3C//DTD SVG 1.1//EN" "http://www.w3.org/Graphics/SVG/1.1/DTD/svg11.dtd">
<!-- Creator: CorelDRAW 2026 -->
<svg xmlns="http://www.w3.org/2000/svg" xml:space="preserve" width="245.057mm" height="173.633mm" version="1.1" style="shape-rendering:geometricPrecision; text-rendering:geometricPrecision; image-rendering:optimizeQuality; fill-rule:evenodd; clip-rule:evenodd"
viewBox="0 0 245057 173633"
 xmlns:xlink="http://www.w3.org/1999/xlink"
 xmlns:xodm="http://www.corel.com/coreldraw/odm/2003">
 <defs>
  <style type="text/css">
   <![CDATA[
    .fil0 {fill:#FB519C;fill-rule:nonzero}
   ]]>
  </style>
 </defs>
 <g id="Слой_x0020_1">
  <metadata id="CorelCorpID_0Corel-Layer"/>
  <path class="fil0" d="M158335.5 15253.7c956,-317.5 1968.5,-591.8 3037.4,-822.8 3367.3,-723.2 6534.4,-1064.5 9501.2,-1024 5281.1,74.1 10253.5,1145.7 14917.2,3214.7 4374.5,1942.1 8374.1,4688.4 11998.9,8239.1 649.1,635 1569,1653.7 2759.6,3056 1289.4,1518.7 2537.3,3302.9 3743.8,5352.5 2005.6,3405.2 3725.4,7336.9 4381.5,11374.4 32.9,208 192.7,373.1 399.5,412.8 4990.1,950.7 9711.1,2807.2 14163.2,5569.5 2379.5,1476.4 4016.4,2615.8 4910.7,3418.4 1883.8,1693.3 3693.6,3164.4 5204.3,5024.4 1488.7,1836.2 2417.4,3010.1 2786.1,3521.6 3379.6,4700.8 5797,9711.1 7252.2,15031 1282.4,4688.4 1791.2,9592.9 1526.7,14713.5 -40.6,776.1 -156.1,1778.9 -346.6,3008.3 -161.4,1031.9 -381,2669.7 -661.5,3989.9 -1236.5,5776.8 -3521.6,11095.8 -6855.4,15957 -160.7,237 -257.1,493.2 -290.7,761.2 -839.8,6071.9 -2929.2,11732.5 -6268.3,16981.8 -142.9,224 -672,1012.5 -1587.5,2365.4 -566.2,837.8 -1133.3,1601.6 -1701.2,2291.3 -4508.5,5482.1 -9774.6,10219.1 -15798.3,14210.7 -6244.2,4135.5 -12713.2,7392.5 -19528.9,10228.8 -1107.7,462.2 -3495.2,1338.8 -7162.3,2630 -2125.5,747.9 -4554.3,1499.3 -7286.6,2254.2 -7791.1,2157.3 -16295.7,3794.2 -25513.8,4910.7 -10055.9,1218.9 -20380.8,1787.7 -30974.8,1706.6 -16449.1,-127 -32258,-1648.4 -47974.2,-5217.6 -610.3,-139.4 -2428.9,-619.1 -5455.7,-1439.3 -10519.8,-2855.8 -20320,-6961.2 -29400.5,-12316.4 -5323.4,-3139.7 -10195.3,-6800.7 -14615.6,-10982.9 -4790.7,-4531.4 -8621,-9713.7 -11490.9,-15546.9 -986.8,-2000.2 -1812.3,-4365.6 -2516.1,-6569.6 -525.7,-1645.7 -899.6,-3360.2 -1121.9,-5143.5 -45.7,-342.4 -165.1,-650.3 -350.5,-917.6 -5043.9,-7449.2 -7733.4,-15725.6 -8068.5,-24829 -100.6,-2807.2 198.4,-6289.1 762,-9199.5 1726.8,-8911.2 5694.7,-16730.5 11903.6,-23458 1195.9,-1296.5 2861,-2804.6 4995.3,-4524.4 5363.1,-4323.3 11676.1,-7096.1 18298.6,-8416.4 163.5,-31.5 293.7,-158 330.7,-322 351,-1563.3 802.6,-3141.4 1354.7,-4734.2 508,-1468.4 1166.8,-2709.3 1754.2,-4143.3 125.2,-305.2 401.3,-837.9 828.1,-1598.1 4312.7,-7702 10488.1,-13702.8 18430.9,-17372.6 1986.1,-917.2 4289.8,-1712.7 6910.9,-2386.5 4460.9,-1145.7 9273.7,-1370.5 14041.5,-769.9 2756.9,349.2 4746.6,695.8 7022,1481.6 63.5,22 130.4,33.4 197.6,33.4 168.4,0 329.1,-70.8 442.8,-194.8 2764.8,-3021.5 6138.2,-5659.4 9699.5,-7871.3 1696.9,-1053.1 3411.4,-1965.9 5143.5,-2738.5 10043.6,-4468.8 21645.6,-5762.6 32308.3,-3000.3 1341.4,346.6 3984.6,1013.3 5603.9,1680.1 2926.3,1206.5 5725.6,2450 8352.9,4230.7 851.9,579.4 2542.6,1576.9 3762.3,2547.9 2129,1695.1 4116.1,3453.7 5961.1,5275.8 52.3,51.3 122.8,80 196.1,80 29.5,0 58.9,-4.7 87,-13.8l0 -0.1zm72186.3 104394c-732.9,732.9 -1415.5,1714.5 -2206.6,2521.5 -3680.4,3751.8 -8059.3,6704.6 -12932.9,8882.1 -4141.6,1852.1 -8411.1,3106.2 -12808.5,3762.3 -92.1,14.5 -165.1,79.5 -188.5,166.4 -1350.7,4761 -3624.1,8906.2 -6820.3,12435.8 -2741.1,3029.4 -6368.5,5603.8 -10252.6,7485 -645.6,314 -2263,987.8 -4852.4,2021.4 -1132.4,451.6 -3069.2,999.3 -5810.3,1643.1 -2499.4,585.6 -5694.7,1024.8 -9585.8,1317.6 -2377.7,178.2 -5620.7,128.8 -9728.8,-148.1 -6601.3,-441.9 -13395.8,-2381.3 -19933.7,-5262.6 -1227.6,-539.8 -2380.3,-1116.6 -3458.1,-1730.4 -1389,-791.1 -3508.4,-2018.8 -5074.7,-3299.3 -82.7,-70.2 -138.5,-156.8 -166.3,-253.8 -169.6,-587.5 -35.7,-999.5 401.8,-1235.8 259.3,-141.1 507.1,-165.9 743.5,-74.1 4669,1804.4 9346.8,3328.4 14033.5,4572 5178.8,1372.3 10633.6,2121 16364.5,2246.3 5425.7,118.2 11063.1,-555.6 16912.1,-2021.4 1338.8,-336.1 2526.8,-844.1 3825.9,-1248.9 850.2,-266.3 1785.9,-635 2807.2,-1105.9 5080,-2341.6 9395.4,-5537.8 12356.1,-10130.9 3072.7,-4769.6 4594,-10040.1 4564,-15811.5 -1.7,-384.5 -27.3,-766.4 -76.7,-1145.7 -124.4,-978.9 -105.8,-1968.5 -251.4,-2857.5 -373.9,-2282.4 -940.1,-4439.7 -1698.6,-6471.7 -333.4,-894.3 -687.9,-1677.4 -1063.6,-2349.5 -926,-1656.3 -1434,-2989.8 -2524.1,-4437 -289.3,-382.8 -783.2,-1065.4 -1481.7,-2047.9 -746.1,-1047.8 -1780.6,-2063.8 -2518.8,-2836.3 -51.3,-54.2 -92.9,-117.9 -121,-186 -150.4,-375.2 -121.6,-703.9 86.6,-986.1 388.9,-529.2 1103.3,-277.9 1574.2,13.2 1263,777.9 2525,1740.9 3786.2,2889.2 817.6,746.2 1494.9,1632.5 2196.1,2383.9 576.8,619.1 1070.7,1247.1 1481.6,1883.9 996.6,1541.6 1873.3,3062.1 2630,4561.4 598,1182.7 936.6,2495 1394.4,3804.7 312.2,890.8 573.2,1867.9 783.1,2931.6 668.5,3391.9 830.8,6836.8 486.9,10334.6 -1.1,9.5 -1.4,20 -0.8,30.4 5.6,108 98.9,190.9 208.4,185.1 10,-0.5 20,-1.8 29.8,-3.8 1923.1,-404 3710.1,-902.3 5361.1,-1494.9 6950.6,-2495.1 13356.2,-6246.8 18092.2,-11869.2 1124.5,-1333.5 1632.5,-2280.8 2640.6,-4204.3 1177.4,-2243.6 1857.4,-5164.6 1942,-7413.6 95.3,-2467.7 -157.8,-5030.6 -759.3,-7688.8 -423.4,-1878.5 -1140.4,-3452.8 -2016.2,-5744.1 -313.9,-823.7 -1254.1,-2488.8 -2820.4,-4995.3 -44.2,-71.5 -71.1,-150.4 -79.6,-232.2 -59.8,-575.5 119.3,-923.2 537.3,-1043.1 485.1,-139.4 961.3,30 1428.8,508 1016,1042.4 2027.6,2234.8 3034.7,3577.1 991.3,1321.2 1754.2,2627.4 2288.7,3918.5 605,1457 1162.4,2899 1672.2,4326 287.5,802.5 508,1825.6 661.4,3069.1 232.8,1868 295.5,3667.2 187.9,5397.5 0,1.7 -0.1,3.4 -0.1,5.2 0,55.5 45,100.5 100.5,100.5 43.3,0 81.7,-27.7 95.4,-68.7 449.8,-1423.4 836,-2585.8 1158.8,-3487.1 515.1,-1441.1 867.9,-2613.2 1058.4,-3516.3 516.8,-2441.3 891.6,-5004.2 1124.4,-7688.8 177.3,-2010.9 -37,-3667.2 -206.3,-6350 -68.8,-1090.1 -390.7,-2835.5 -965.8,-5236.1 -341.3,-1434.1 -870.4,-2510.9 -1293.8,-3931.8 -934,-3153.8 -2323,-5516.5 -4101,-8366.1 -654.4,-1049.5 -1467.6,-2149.3 -2439.5,-3299.3 -2129,-2518.9 -4307.4,-4635.5 -6535.2,-6350 -9800.1,-7543.3 -22225,-9824 -33816.4,-6440 -3575.4,1044.2 -6928.5,2544.4 -10059.4,4500.6 -2443,1527.5 -4783.7,3175 -7022.1,4942.4 -743.5,587.4 -1844.1,388.9 -2084.9,-579.5 -104.1,-416.2 -92.6,-730.2 34.4,-941.9 2087.6,-3426.3 5072.1,-6241.5 8360.8,-8630.7 3762.4,-2727.8 8088.3,-4582.6 12628.6,-5635.6 3463.4,-801.7 7212.5,-965.7 10773.8,-1016 73.5,-1.5 132.3,-61.4 132.3,-134.9 0,-8.9 -0.9,-17.8 -2.6,-26.5 -358.1,-1705.7 -895.2,-3254.4 -1611.3,-4646.1 -1087.5,-2114 -2463.3,-4923.9 -4201.6,-6987.6 -1448.2,-1719.8 -2315.1,-2725.2 -2600.9,-3016.3 -4215.7,-4282.7 -9073.4,-7233.7 -14573.2,-8852.9 -5540.4,-1629.9 -11130.2,-1837.1 -16769.3,-621.8 -5508.6,1187.1 -10480.2,3741.2 -14914.6,7662.3 -449.8,398.7 -1546,1532.8 -3288.7,3402.6 -1005.5,1079.5 -1645.8,2084.9 -2643.2,3373.4 -599.7,776.1 -1204.8,1657.2 -1815.1,2643.2 -1407.6,2273.6 -2616.7,4454.7 -3627.4,6543.1 -241.7,497.4 -486.8,825.5 -735.6,984.3 -777.8,500.1 -1770,-465.7 -1666.8,-1267.4 232.8,-1804.4 863.4,-4137.2 1891.7,-6998.2 627.1,-1735.7 1619.3,-3683 2249,-4818.1 3217.3,-5794.3 8083,-10670.6 14015,-13700.1 54.4,-28.2 88.6,-84.4 88.6,-145.7 0,-47.7 -20.8,-93 -56.9,-124.2 -1087.4,-920.7 -1844.1,-1674.8 -2984.5,-2492.3 -1467.5,-1053.1 -2961.5,-2057.6 -4482,-3013.6 -1558.4,-981.6 -3053.3,-1582.2 -4627.6,-2378.6 -1072.4,-541.5 -2274.5,-1039 -3606.2,-1492.3 -9162.6,-3119.4 -19071.2,-3212 -28299.9,-37 -5889.6,2024.9 -11188.3,5146.1 -15896.1,9363.6 -10.2,9.1 -19,18.7 -26.8,29.1 -67.7,89.8 -48.8,218.3 42.2,286.9 10.3,7.7 21.4,14.6 32.9,20.3 2842.9,1412.7 5408.2,3223.2 7696,5431.6 2538.2,2450 4599.3,5070.3 6183.3,7860.8 976.3,1719.8 1767.4,3167 2291.3,4656.6 751.4,2136.1 1199.5,3483.7 1344.1,4042.9 423.3,1633.3 670.3,2755.2 740.8,3365.5 90,790.2 -218.7,1300.8 -926,1531.9 -82.1,25.6 -173.1,30.6 -261.7,13.7 -492.3,-100.9 -812.5,-300.3 -960.7,-598.4 -777.9,-1579.6 -1775.3,-3564 -2857.5,-5207 -478,-723.2 -915.5,-1449.9 -1312.3,-2180.2 -949.9,-1743.6 -2294,-3066.5 -3471.4,-4730.7 -1010.7,-1426.2 -2230.4,-2505.7 -3418.4,-3701.6 -749.6,-756.7 -1457.8,-1396.1 -2124.6,-1918.2 -5868.4,-4591.4 -12619.7,-6988.5 -20253.8,-7191.4 -8940.3,-235.4 -17877.9,3526.9 -24148.6,9712.9 -3616.8,3566.6 -6283.8,7829 -8186.2,12565 -315.7,788.5 -591.7,1654.6 -828.1,2598.3 -4,16.5 -6.1,29.6 -7.3,42.8 -12.8,147 97.1,276.7 245.6,289.7 12.6,1.1 25.4,1.3 38,0.7 6190.5,-298 12085.9,767.4 17686.3,3196.3 1370.5,594.4 2555.8,1203.9 3556,1828.3 4111.6,2569.1 7503.5,5640.9 10263.1,9749.9 363.4,541.5 460.4,1014.2 291.1,1418.1 -317.5,751.4 -1225,1095.4 -1889.1,568.9 -3194.4,-2543.5 -6591.7,-4763.4 -10191.8,-6659.6 -2748.1,-1448.1 -5491,-2516.2 -8228.5,-3204.1 -9175.8,-2308.9 -18026.1,-1381.1 -26551,2783.4 -2883.9,1409.4 -5841.1,3469.6 -8871.5,6180.7 -569.7,508 -1241.7,1188 -2016.1,2039.9 -1074.2,1176.5 -1711.8,1890.9 -1912.9,2143.2 -4644.3,5845.5 -7517.7,12453.9 -8620.1,19825.2 -121.7,825.5 -192.3,1479 -211.7,1960.6 -66.2,1815 -267.2,3251.7 -142.9,4921.2 229.3,3009.2 508,5288.1 836.1,6836.8 553,2606.2 1632.5,5463.7 2582.3,8403.2 18.2,52 67.4,87 122.6,87 51,0 97.3,-30 118.2,-76.5 68.8,-164 88.2,-363.3 58.2,-597.9 -236.4,-1933.2 -119.9,-4004 349.3,-6212.4 234.6,-1104.2 513.3,-2073.4 836,-2907.8 400.4,-1031.8 759.4,-1974.6 1076.9,-2828.4 801.7,-2151 2259.5,-4095.7 3815.3,-6037.7 522.1,-649.1 1205.6,-1330.9 2050.5,-2045.3 812.3,-687.9 1931.5,-322.8 1547.8,852 -18,57.6 -45.2,110.5 -80.3,157.5 -1479.3,2046.9 -2671.3,4312.2 -3576.2,6795.7 -1148.3,3145.9 -1976.5,6485 -1984.4,9871.6 0,508 52.9,1244.5 158.8,2209.3 230.1,2106.1 373,3767.7 1132.4,5601.2 183.4,442.8 653.5,1389.1 1410.2,2839 465.7,892.5 1055.7,1772.7 1770.1,2640.6 1342.3,1636.9 2995.1,3212 4958.3,4725.4 1677.4,1292.9 2975.6,2193.4 3894.6,2701.4 1218.9,673.8 1988.8,1106.9 2309.8,1299.1 836.1,504.5 1616.6,913.7 2341.6,1227.7 2481.8,1074.2 4552.6,1890.9 6212.4,2450 1381.1,465.7 2579.7,664.1 4008.5,963.1 8.9,1.6 18,2.5 27.1,2.5 77.4,0 140.2,-62.8 140.2,-140.2 0,-4.4 -0.2,-8.8 -0.6,-13.2 -288.5,-3267.5 -153.5,-7048.4 666.7,-10308.1 1114.8,-4423.8 3000.4,-8418.1 5656.8,-11982.9 396.9,-531 769.9,-972 1119.2,-1323 1058.3,-1063.6 1693.3,-1979 2854.8,-2857.5 1381.2,-1045.1 2600.9,-2053.1 4003.2,-2614 331.3,-131.6 688,-64.1 890,167.6 575.8,655.2 184.2,1210.8 -421.7,1755.9 -1670.4,1502.8 -3202.4,3340.8 -4595.8,5513.9 -2608.8,4069.3 -4278.3,8330 -5008.6,12782 -322.8,1965 -421.6,3643.3 -296.3,5035 74.1,850.2 137.6,1710.1 190.5,2579.7 137.6,2288.7 1111.2,4852.5 1957.9,7120 379.2,1017.7 884.6,2061.1 1516.1,3130 1472.8,2487.1 3313.4,4703.4 5521.8,6649 90,79.3 818.5,631.4 2185.5,1656.2 1613.9,1209.2 3894.6,2423.6 5296.9,3053.3 24.7,10.6 1180.1,462.2 3466.1,1354.7 1120,437.4 2300.1,801.7 3540.1,1092.7 2712.9,636.8 4325.1,999.3 4836.6,1087.5 9223.4,1571.6 18533.2,1137.7 27929.4,-1301.8 4785.4,-1241.8 9284.2,-2695.2 13496.4,-4360.3 467.4,-185.2 833.4,-252.2 1098,-201.1 740.8,145.5 838.7,1177.4 280.5,1616.6 -855.5,673.8 -1822.1,1333.5 -2899.9,1979.1 -9210.1,5516.6 -19243.1,8199.4 -29953.4,8487.8 -1243.6,34.4 -2177.6,-18.5 -3389.4,-50.2 -2998.6,-72.3 -5165.5,-231.1 -6500.8,-476.3 -3246.4,-598 -5646.2,-891.6 -8215.3,-1767.4 -2605.3,-890.8 -3915.8,-1339.7 -3931.7,-1346.7 -3122.1,-1301.8 -6342,-2942.2 -9088.4,-5048.3 -1536.4,-1178.3 -2722.6,-2204 -3558.7,-3077.1 -3487.2,-3640.7 -6257.4,-8233.8 -7601.4,-13213.3 -35.4,-124.2 -140,-212.4 -264.6,-225.4 -1174.8,-130.2 -2491.5,-377 -3950.3,-740.3 -2659.9,-663.2 -5142.6,-1433.2 -7448,-2309.8 -1248.8,-473.6 -2622,-1166.8 -3421,-1542.5 -1046,-492.2 -1866.2,-942.8 -2460.7,-1352.1 -1270,-875.7 -2622,-1606 -4005.8,-2698.7 -859,-677.3 -1623.6,-1285.9 -2293.9,-1825.6 -1619.3,-1304.4 -2918.4,-2918.4 -4074.6,-4357.7 -18.5,-21.8 -45.6,-34.3 -74.2,-34.3 -54.1,0 -97.9,43.8 -97.9,97.9 0,7.9 1,15.9 2.9,23.6 142.8,536.3 326.2,1073.4 550.2,1611.4 730.3,1746.2 1442,3345.2 2135.2,4796.9 176.4,370.4 851.1,1518.7 2024.1,3444.9 635,1042.4 1391.7,2133.4 2270.1,3272.9 3564.8,4624.9 7754.9,8623.6 12570.3,11996.2 2261.3,1584 3624,2539.1 4087.9,2865.4 617.3,435.7 1940.2,1194.2 3968.7,2275.4 722.3,386.3 1502.8,971 2233.1,1362.6 3511.9,1869.7 7224,3606.3 11136.3,5209.7 2915.7,1195.9 4960.9,1801.8 8472,3048 1013.3,357.2 2397.1,629.7 3471.3,1047.7 668.5,259.3 1541.6,502.7 2619.4,730.3 2577,542.4 5238.7,1336.1 8093.6,1912.9 2772.8,560.9 4586.1,922.5 5439.8,1084.8 3457.2,659.7 7793.8,1266.5 13009.6,1820.3 6706.3,710.9 13475.2,1135.1 20306.7,1272.7 10886.8,218.7 21467.5,-217.9 31742.1,-1309.7 7768.2,-823.7 15960.6,-2262.2 24577.2,-4315.4 1968.5,-470.9 3746.5,-1103.3 5413.3,-1531.9 721.4,-185.2 2055,-626.2 4000.5,-1322.9 1537.3,-550.3 3566.6,-1084.8 5209.7,-1820.3 1815,-815 3542.7,-1338.8 5379,-2235.8 1833.5,-891.6 3905.2,-1725.1 5931.9,-2825.7 3561.3,-1929.7 5702.7,-3129.2 6424.1,-3598.4 2416.5,-1576.9 4079,-2694.3 4987.4,-3352.2 5823.5,-4222.8 10686.5,-9001.2 14769,-14964.9 611.2,-894.3 1037.2,-1788.5 1624.6,-2674.9 372.2,-564.4 737.3,-1256.8 1095.3,-2077 964.9,-2208.4 1772.8,-4233.3 2423.6,-6074.8 2.1,-6.1 3.1,-12.4 3.1,-18.8 0,-32.1 -26.1,-58.2 -58.2,-58.2 -14.9,0 -29.3,5.7 -40.1,16l0 0.1z"/>
 </g>
</svg>
